<svg width="102" height="32" viewBox="0 0 102 32" fill="none" xmlns="http://www.w3.org/2000/svg">
<path d="M8.73074 19.9862L4.37569 13.9692V19.379C4.37575 19.5149 4.34901 19.6496 4.297 19.7753C4.245 19.9009 4.16875 20.0151 4.0726 20.1113C3.97646 20.2075 3.86231 20.2838 3.73668 20.3358C3.61104 20.3879 3.47638 20.4147 3.34039 20.4147H1.03531C0.899312 20.4147 0.764652 20.3879 0.639016 20.3358C0.51338 20.2838 0.39923 20.2075 0.303088 20.1113C0.206946 20.0151 0.130694 19.9009 0.0786895 19.7753C0.0266848 19.6496 -5.41414e-05 19.5149 8.23044e-08 19.379V1.03531C8.23044e-08 0.760726 0.109077 0.497392 0.303234 0.303235C0.497391 0.109077 0.760725 7.40739e-07 1.03531 7.40739e-07H3.33915C3.47521 -0.000162013 3.60997 0.0264969 3.73572 0.0784529C3.86147 0.130409 3.97575 0.206643 4.07202 0.302796C4.16829 0.39895 4.24466 0.513136 4.29677 0.638826C4.34887 0.764515 4.37569 0.899244 4.37569 1.03531V12.2189L8.4422 6.28242C8.53717 6.14353 8.66461 6.02991 8.81345 5.95143C8.96228 5.87295 9.12802 5.83197 9.29628 5.83206H11.8193C12.666 5.83206 13.1547 6.79264 12.6565 7.47666L8.54498 13.1238L12.7601 18.7589C13.2707 19.4417 12.7836 20.4147 11.9308 20.4147H9.56956C9.40582 20.4147 9.24441 20.3758 9.0986 20.3013C8.95278 20.2269 8.82672 20.1188 8.73074 19.9862Z" fill="#F9FAFB"/>
<path d="M29.6878 7.20338V19.0438C29.6878 19.4071 29.5436 19.7556 29.2867 20.0127C29.0299 20.2698 28.6815 20.4143 28.3182 20.4147H26.6839C26.3204 20.4146 25.9718 20.2701 25.7148 20.013C25.4578 19.7559 25.3134 19.4073 25.3134 19.0438C24.3511 20.1521 22.922 20.8229 20.9678 20.8229C17.1474 20.8229 13.9977 17.4689 13.9977 13.1238C13.9977 8.77863 17.1474 5.42462 20.9678 5.42462C22.922 5.42462 24.3528 6.09501 25.3134 7.20338C25.3134 6.8399 25.4578 6.49131 25.7148 6.23429C25.9718 5.97727 26.3204 5.83288 26.6839 5.83288H28.3182C28.6816 5.83288 29.0302 5.97727 29.2873 6.23429C29.5443 6.49131 29.6887 6.8399 29.6887 7.20338M25.313 13.1238C25.313 10.9359 23.855 9.56584 21.8426 9.56584C19.8301 9.56584 18.3721 10.9363 18.3721 13.1238C18.3721 15.3112 19.8301 16.6817 21.8426 16.6817C23.855 16.6817 25.313 15.3108 25.313 13.1238Z" fill="#F9FAFB"/>
<path d="M46.8942 11.4614V19.0438C46.8942 19.4073 46.7498 19.7559 46.4928 20.013C46.2358 20.2701 45.8872 20.4146 45.5237 20.4147H43.8903C43.5268 20.4146 43.1782 20.2701 42.9212 20.013C42.6641 19.7559 42.5198 19.4073 42.5198 19.0438V12.1029C42.5198 10.2948 41.3825 9.44902 39.9823 9.44902C38.3785 9.44902 37.2702 10.3824 37.2702 12.453V19.0438C37.2702 19.2238 37.2348 19.402 37.166 19.5683C37.0971 19.7347 36.9962 19.8858 36.8689 20.0131C36.7416 20.1404 36.5905 20.2414 36.4242 20.3103C36.2579 20.3792 36.0797 20.4147 35.8997 20.4147H34.2654C33.9019 20.4146 33.5533 20.2701 33.2963 20.013C33.0393 19.7559 32.8949 19.4073 32.8949 19.0438V7.20338C32.8949 6.8399 33.0393 6.49131 33.2963 6.23429C33.5533 5.97727 33.9019 5.83288 34.2654 5.83288H35.8989C36.0788 5.83282 36.2571 5.86824 36.4234 5.93709C36.5897 6.00595 36.7408 6.10689 36.8681 6.23417C36.9953 6.36144 37.0963 6.51254 37.1651 6.67885C37.234 6.84515 37.2694 7.02339 37.2694 7.20338C38.057 6.12432 39.515 5.42462 41.4386 5.42462C44.3844 5.42462 46.8922 7.52412 46.8922 11.4614" fill="#F9FAFB"/>
<path d="M63.3699 5.83288C63.764 5.83288 64.142 5.98945 64.4207 6.26814C64.6994 6.54684 64.856 6.92483 64.856 7.31896V19.6857C64.856 24.5848 61.0359 26.6554 57.1568 26.6554C54.8542 26.6554 52.8377 25.9999 51.4127 24.638C50.6998 23.9561 50.8513 22.7763 51.7054 22.2826L52.8332 21.6308C53.1197 21.4672 53.4523 21.4027 53.7793 21.4475C54.1062 21.4923 54.4092 21.6438 54.6412 21.8785C55.1993 22.4329 56.0064 22.804 57.3042 22.804C59.3455 22.804 60.5996 21.7538 60.5996 19.6836V18.342C59.6369 19.5391 58.2371 20.2376 56.3416 20.2376C52.2003 20.2376 49.1675 16.8547 49.1675 12.8299C49.1675 8.80505 52.2003 5.42255 56.3416 5.42255C58.2371 5.42255 59.6369 6.12432 60.5996 7.31814C60.5996 6.924 60.7562 6.54601 61.0349 6.26732C61.3136 5.98862 61.6915 5.83205 62.0857 5.83205L63.3699 5.83288ZM60.5992 12.8319C60.5992 10.8195 59.1408 9.44695 57.0701 9.44695C54.9995 9.44695 53.5415 10.8175 53.5415 12.8319C53.5415 14.8464 54.9995 16.2148 57.0701 16.2148C59.1408 16.2148 60.5992 14.8443 60.5992 12.8319Z" fill="#F9FAFB"/>
<path d="M67.3353 13.1238C67.3353 8.77821 70.7768 5.42462 75.0638 5.42462C79.3507 5.42462 82.7923 8.77821 82.7923 13.1238C82.7923 17.4693 79.3507 20.8229 75.0638 20.8229C70.7768 20.8229 67.3353 17.4689 67.3353 13.1238ZM78.4178 13.1238C78.4178 11.0532 76.9594 9.68225 75.0638 9.68225C73.1682 9.68225 71.7102 11.0532 71.7102 13.1238C71.7102 15.1944 73.1682 16.5649 75.0638 16.5649C76.9594 16.5649 78.4178 15.1944 78.4178 13.1238Z" fill="#F9FAFB"/>
<path d="M84.5417 13.1238C84.5417 8.77821 87.9829 5.42462 92.2702 5.42462C96.5576 5.42462 99.9983 8.77821 99.9983 13.1238C99.9983 17.4693 96.5572 20.8229 92.2702 20.8229C87.9833 20.8229 84.5417 17.4689 84.5417 13.1238ZM95.6238 13.1238C95.6238 11.0532 94.1658 9.68225 92.2702 9.68225C90.3746 9.68225 88.9174 11.0532 88.9174 13.1238C88.9174 15.1944 90.3759 16.5649 92.2715 16.5649C94.167 16.5649 95.625 15.1944 95.625 13.1238" fill="#F9FAFB"/>
<path d="M70.0918 29.2566H68.1122V22.8415H70.1795C70.8018 22.8415 71.3343 22.9699 71.777 23.2268C72.2197 23.4815 72.5591 23.848 72.795 24.3262C73.031 24.8023 73.149 25.3724 73.149 26.0365C73.149 26.7047 73.03 27.28 72.7919 27.7624C72.5538 28.2427 72.2072 28.6123 71.752 28.8713C71.2967 29.1281 70.7433 29.2566 70.0918 29.2566ZM68.889 28.5674H70.0417C70.5721 28.5674 71.0117 28.4651 71.3604 28.2605C71.7092 28.0558 71.9691 27.7645 72.1404 27.3865C72.3116 27.0086 72.3972 26.5586 72.3972 26.0365C72.3972 25.5186 72.3127 25.0728 72.1435 24.699C71.9744 24.3231 71.7217 24.0349 71.3855 23.8344C71.0493 23.6319 70.6306 23.5306 70.1294 23.5306H68.889V28.5674ZM75.2289 22.8415V29.2566H74.4521V22.8415H75.2289ZM81.1718 24.8462C81.1028 24.6353 81.012 24.4463 80.8992 24.2792C80.7886 24.1101 80.656 23.966 80.5014 23.847C80.349 23.7279 80.1757 23.6371 79.9815 23.5745C79.7873 23.5118 79.5743 23.4805 79.3425 23.4805C78.9624 23.4805 78.6168 23.5786 78.3056 23.7749C77.9945 23.9712 77.747 24.2604 77.5633 24.6426C77.3795 25.0247 77.2876 25.4935 77.2876 26.049C77.2876 26.6045 77.3806 27.0733 77.5664 27.4555C77.7523 27.8376 78.0039 28.1268 78.3213 28.3231C78.6387 28.5194 78.9958 28.6176 79.3926 28.6176C79.7601 28.6176 80.0838 28.5392 80.3636 28.3826C80.6455 28.2239 80.8648 28.0005 81.0214 27.7123C81.1801 27.422 81.2595 27.0806 81.2595 26.688L81.4975 26.7381H79.568V26.049H82.0112V26.7381C82.0112 27.2665 81.8985 27.7259 81.6729 28.1164C81.4495 28.5069 81.1404 28.8097 80.7458 29.0248C80.3532 29.2378 79.9021 29.3443 79.3926 29.3443C78.8246 29.3443 78.3255 29.2106 77.8953 28.9433C77.4672 28.676 77.1331 28.296 76.893 27.8031C76.6549 27.3103 76.5359 26.7256 76.5359 26.049C76.5359 25.5416 76.6037 25.0853 76.7395 24.6802C76.8773 24.273 77.0715 23.9263 77.3221 23.6402C77.5727 23.3541 77.8692 23.1349 78.2117 22.9824C78.5541 22.83 78.9311 22.7538 79.3425 22.7538C79.6808 22.7538 79.9961 22.8049 80.2884 22.9073C80.5829 23.0075 80.8449 23.1505 81.0747 23.3364C81.3065 23.5202 81.4996 23.7405 81.6541 23.9973C81.8087 24.2521 81.9152 24.535 81.9736 24.8462H81.1718ZM84.1185 22.8415V29.2566H83.3417V22.8415H84.1185ZM85.3253 23.5306V22.8415H90.1366V23.5306H88.1193V29.2566H87.3425V23.5306H85.3253ZM90.8492 29.2566H90.0348L92.3903 22.8415H93.1922L95.5477 29.2566H94.7333L92.8163 23.8564H92.7662L90.8492 29.2566ZM91.1499 26.7507H94.4326V27.4398H91.1499V26.7507ZM96.547 29.2566V22.8415H97.3238V28.5674H100.306V29.2566H96.547Z" fill="#F9FAFB"/>
</svg>
